<svg id="Layer_1" data-name="Layer 1" xmlns="http://www.w3.org/2000/svg" viewBox="0 0 115.52 25.98"><defs><style>.cls-1{fill:#353535;}</style></defs><title>escuro</title><g id="Layer_2" data-name="Layer 2"><g id="Layer_1-2" data-name="Layer 1-2"><path class="cls-1" d="M32.36,17.29V7h3.73V26L24.92,15.32V25.6H21.2V6.66Z" transform="translate(0 -0.02)"/><path class="cls-1" d="M49.62,18.26V7.06h3.75V18.27a7.5,7.5,0,0,1-12.79,5.3,7.24,7.24,0,0,1-2.19-5.3V7.06h3.74v11.2a3.75,3.75,0,0,0,7.49,0Z" transform="translate(0 -0.02)"/><path class="cls-1" d="M64.36,25.7A9.35,9.35,0,0,1,55,16.36v0a9.12,9.12,0,0,1,2.75-6.66,9.09,9.09,0,0,1,6.63-2.76V7A9.57,9.57,0,0,1,71,9.7l-2.65,2.65a5.51,5.51,0,0,0-4-1.65,5.37,5.37,0,0,0-4,1.65,5.63,5.63,0,0,0,0,8l0,0a5.64,5.64,0,0,0,8,0l0,0L71,23A9.34,9.34,0,0,1,64.36,25.7Z" transform="translate(0 -0.02)"/><path class="cls-1" d="M80,6.68l8.46,18.9h-4l-1.25-2.82H76.85L75.6,25.58h-4Zm1.7,12.8L80,15.56l-1.71,3.92Z" transform="translate(0 -0.02)"/><path class="cls-1" d="M99.63,14.68a6.8,6.8,0,0,1,1.43,1,5.85,5.85,0,0,1,0,8.22A5.49,5.49,0,0,1,97,25.58H90.08V7.06h5.17a5,5,0,0,1,3.68,1.53,4.88,4.88,0,0,1,1.47,3.53A5.91,5.91,0,0,1,99.63,14.68Zm-4.38-4H93.8v3.39A8.64,8.64,0,0,0,95.18,14a1.75,1.75,0,0,0,1.64-1.7,1.59,1.59,0,0,0-1.57-1.61Zm3.86,9.07A2.32,2.32,0,0,0,97,17.46c-1.11-.06-2.06,0-3.17,0V22H97a2.17,2.17,0,0,0,2.11-2.23v0Z" transform="translate(0 -0.02)"/><path class="cls-1" d="M115.52,7v3.73h-7.43v3.72h5.57v3.72h-5.57v3.72h7.43v3.73H104.35V7Zm-2.19-5.3-3.8,3.53-1.33-1,3-4.21Z" transform="translate(0 -0.02)"/><path class="cls-1" d="M0,6.7V25.58H18.88V6.7ZM15.28,22H3.59V10.3H15.28Z" transform="translate(0 -0.02)"/></g></g></svg>