<svg xmlns="http://www.w3.org/2000/svg" xmlns:xlink="http://www.w3.org/1999/xlink" viewBox="0 0 641.5 640.09"><defs><style>.cls-1{fill:none;}.cls-2{clip-path:url(#clip-path);}.cls-3{fill:#4badcf;}.cls-4{fill:#1d1743;}.cls-5{fill:#f49fa1;}.cls-6{fill:#fff;}.cls-7{fill:#271f49;}.cls-8{fill:#56b1d2;}.cls-9{fill:#44a4cb;}.cls-10{fill:#2c1b44;}.cls-11{fill:#f64b4c;}.cls-12{fill:#8baccc;}</style><clipPath id="clip-path"><circle class="cls-1" cx="320.19" cy="318.56" r="283.44"/></clipPath></defs><title>Asset 2</title><g id="Layer_2" data-name="Layer 2"><g id="Layer_1-2" data-name="Layer 1"><g class="cls-2"><path class="cls-3" d="M338.26,0h1c1.55.9,3.25.48,4.89.48q114.6,0,229.21,0c1.64,0,3.34.42,4.9-.48h2c1.57,1.41,1.47,3.31,1.52,5.17-.18,6.89-3.27,12.83-6.29,18.75-5.81,11.38-14.08,20.95-22.43,30.52-18.5,21.18-41.28,37.16-63.87,53.39-24.39,17.52-47.15,37.05-70,56.44-12.07,10.22-23.9,20.72-35,32a6.32,6.32,0,0,1-2.57,1.52,59.51,59.51,0,0,1-10,.36q-80.49,0-161,0c-1.67,0-3.34,0-5,0-5.23.19-6.09.93-6.13,6.22-.13,13.33,0,26.66,0,40v186c0,1.67,0,3.34,0,5,.16,5.57.89,6.41,6.44,6.45,14,.12,28,0,42,0,19.83,0,39.66,0,59.49,0,2.78,0,5.73-.51,8.16,1.53a6.68,6.68,0,0,1,1.53,5.1c-.65,17.93-1.13,35.86-1.77,53.79-.74,20.75-1.18,41.51-2.15,62.24-.45,9.47-.07,19-.82,28.38-1.08,13.62-.73,27.24-1,40.86,0,2-.12,4-2,5.4a10.8,10.8,0,0,1-4,.3H15a18.79,18.79,0,0,1-2.49-.11c-1.8-1.12-2.14-2.91-2-4.8,1.07-16.58,2.71-33.12,4.25-49.67.92-9.92,1.65-19.87,2.36-29.82,1.3-18.22,2.11-36.48,3.79-54.68.6-6.45.61-12.95.95-19.42.78-15.1,1.69-30.21,2.39-45.32.94-19.92,2.19-39.82,3.08-59.75.56-12.44,1.25-24.89,1.95-37.33,1.11-19.58,1.95-39.17,3-58.75.68-12.28,1.19-24.56,1.83-36.84,1.13-21.74,2.38-43.48,3.2-65.24q.69-18.42,1.94-36.83c1.53-22.89,2.38-45.81,3.57-68.71C44,50.81,45.53,29.38,45.16,7.9c0-2.79-.42-5.75,2.1-7.9h2c1.72.94,3.59.48,5.39.48q139.11,0,278.21,0C334.66.48,336.53.94,338.26,0Z"/><path class="cls-4" d="M382.85,196c7.13-8.84,15.63-16.29,24.11-23.73,35.4-31.08,72.42-60.1,110.56-87.75a214.43,214.43,0,0,0,51.19-52.8A78,78,0,0,0,580.34,6c.49-4.41,2.79-5.69,7.31-5.6,15.57.34,31.16.15,46.74.11,1.62,0,3.32.44,4.87-.48h1c1,2.07.47,4.26.47,6.39q0,237.26,0,474.52,0,76.32,0,152.64c0,1.82.28,3.66-.29,5.45-1.56.9-3.26.48-4.89.48q-50.64,0-101.28,0c-3-.74-3.73-3.23-3.88-5.72-.87-14.37-4.83-28.13-8.17-42-.7-2.91-1.33-5.83-1.84-8.77-3.41-12.39-6.69-24.81-9.59-37.33-3.14-9.8-5.56-19.82-9.17-29.49a385.88,385.88,0,0,0-23.17-49.63c-3.34-6.12-6.13-12.51-9.55-18.59-8.1-15.76-17.18-31-25.53-46.61a96.75,96.75,0,0,1-.26-10.49q0-90.41,0-180.8c0-1.83,0-3.66,0-5.49-.17-5.53-.89-6.35-6.47-6.38-15.48-.1-31,0-46.45-.08C387.59,198.08,384.73,198.63,382.85,196Z"/><path class="cls-5" d="M47.26,0c.56,26-1.36,51.92-2.54,77.86-1.35,29.44-2.94,58.87-4.44,88.31q-3.35,65.58-6.7,131.18C32,327.79,30.7,358.23,29,388.65c-2.87,51.86-5.68,103.72-9,155.55-2,30.39-4.9,60.72-7.38,91.08-.09,1.15,0,2.33,0,3.49-3.16,1.59-6.52.39-9.78.69-1.46.14-2-.78-2.06-2.18s0-2.66,0-4Q.76,319.35.78,5.4c0-1.8-.46-3.67.48-5.4Z"/><path class="cls-6" d="M1.26,0q0,314.16,0,628.31c0,11.19,0,11.19,11.33,10.46,1.49.07,3,.2,4.48.2h288.1c1.33,0,2.65-.09,4-.14a7.31,7.31,0,0,1,5.5-1.93c49.32,0,98.65-.15,148,.06.83,0,1.66.17,2.49.21,20.8-.65,41.61-.21,62.42-.26,2,0,4,.17,5.43,1.93l107.25,0c.42-.41.76-.37,1,.18-.22.31.5,1-.51,1-1.33,0-2.66,0-4,0q-316,0-632,.09c-3.75,0-4.6-.84-4.6-4.59Q.33,320,.32,4.5C.32,3-.84,1.11,1.26,0Z"/><path class="cls-7" d="M640.26,481V0c2.06.9.93,2.7.93,4q.12,45.5.07,91V481C640.92,481.49,640.59,481.49,640.26,481Z"/><path class="cls-8" d="M338.26,0c-1.55,1.41-3.46,1-5.26,1Q193.76,1,54.51,1c-1.8,0-3.71.43-5.25-1Z"/><path class="cls-9" d="M578.26,0c-1.55,1.41-3.46,1-5.26,1Q458.76,1,344.51,1c-1.8,0-3.71.42-5.25-1Z"/><path class="cls-10" d="M640.26,481h1V639l-1-.18Q640.26,559.91,640.26,481Z"/><path class="cls-7" d="M639.26,0c-1.71,1.51-3.79,1-5.73,1-14.62,0-29.24.22-43.85-.1-4.47-.1-7.7.67-9.34,5.09l-.08-6Z"/><path class="cls-5" d="M315,444.09q61-.07,122-.16c9.35,0,8.13,1,8.22-8.3q.15-16.5.25-33c9.45,14.3,17.39,29.45,25,44.79,1,3-1.24,4.57-2.79,6.45-13.55,16.41-27.85,32.2-40.91,49-7,9-12.11,18.76-13,30.28-.95,12.36,1.68,23.88,9.77,33.57,5.6,6.71,13.08,9.59,21.85,10.38,19.92,1.81,35.22-7.62,49.72-19.37a138.36,138.36,0,0,0,11.16-9.95c1.59-1.61,3.12-3.6,5.88-3.13,3.76,12.36,6.87,24.89,9.74,37.49-.61,2.82-2.68,4.48-4.79,6.12-10.36,8-20.79,15.93-30.8,24.39-7.31,6.18-13.53,13.17-17.72,21.83a13.49,13.49,0,0,1-3.21,4.37l-156.18-.06c.11-51.64,3.1-103.2,4.36-154.81C313.86,470.71,314.5,457.4,315,444.09Z"/><path class="cls-11" d="M512.13,544.69a171.25,171.25,0,0,1-31.63,25.85c-12.27,7.87-25.7,10.08-39.74,8.09-15.06-2.13-26.3-16.45-28.67-33.12-2.76-19.43,5.22-34.68,17-48.76,13.11-15.72,26.44-31.25,39.66-46.88.64-.76,1.15-1.62,1.73-2.43C487.41,478.53,504.37,509.64,512.13,544.69Z"/><path class="cls-11" d="M465.35,638.89c2.45-11.58,10.51-19.29,18.79-26.7,12-10.73,25.16-20,37.73-30C526.93,600.8,532,619.42,533,638.84Z"/><path class="cls-12" d="M251.06,246.2l-3.48,3C246.77,246,248.6,245.71,251.06,246.2Z"/></g><rect class="cls-6" x="166.65" y="168.94" width="307.08" height="307.08"/><rect class="cls-11" x="229.28" y="231.4" width="181.83" height="181.83"/></g></g></svg>